<?xml version="1.0" encoding="utf-8"?>
<!-- Svg Vector Icons : http://www.onlinewebfonts.com/icon -->
<!DOCTYPE svg PUBLIC "-//W3C//DTD SVG 1.1//EN" "http://www.w3.org/Graphics/SVG/1.1/DTD/svg11.dtd">
<svg version="1.1" xmlns="http://www.w3.org/2000/svg" xmlns:xlink="http://www.w3.org/1999/xlink" x="0px" y="0px" viewBox="0 0 1000 1000" enable-background="new 0 0 1000 1000" xml:space="preserve">
<metadata> Svg Vector Icons : http://www.onlinewebfonts.com/icon </metadata>
<g><g transform="translate(0.000000,512.000000) scale(0.100000,-0.100000)"><path d="M4541.9,5008.4c-1157.1-113-2210.8-613-3026.9-1438.7C756.4,2801.4,306.2,1895.3,135.6,793.7c-51.7-339.1-46-1032.6,9.6-1388.9c86.2-544.1,224.1-980.9,465.5-1463.6c475.1-961.7,1241.4-1726.1,2203.1-2203.1c1371.7-682,2956-689.7,4321.9-23c505.7,247.1,864,500,1268.2,892.7c436.8,425.3,712.6,802.7,977,1333.4c687.7,1379.3,691.6,2959.8,13.4,4337.2c-260.5,524.9-513.4,881.2-917.6,1291.2c-764.4,772.1-1691.6,1241.4-2791.2,1410C5448,5016,4792.8,5031.4,4541.9,5008.4z M5451.8,4412.6c988.5-107.3,1885.1-536.4,2590.1-1243.3c821.9-821.9,1264.4-1885.1,1264.4-3046c0-1159-442.5-2226.1-1264.4-3046c-819.9-821.9-1887-1264.4-3046-1264.4c-1160.9,0-2224.2,442.5-3046,1264.4C1128-2101,685.5-1037.7,685.5,123.2c0,1160.9,440.6,2224.2,1264.4,3046c695.4,697.3,1593.9,1134.1,2557.5,1241.4C4725.8,4435.6,5233.5,4437.5,5451.8,4412.6z"/><path d="M5273.7,2274.6c-387-30.6-655.2-182-774-434.9c-80.5-170.5-97.7-283.5-97.7-643.7V870.4h-239.5h-239.5V496.8V123.2h239.5H4402V-959.2v-1082.4l475.1,3.8l473.2,5.7l5.7,1078.6l3.8,1076.7H5676c174.3,0,316.1,5.7,316.1,15.3c0,7.7,17.3,160.9,38.3,339.1c21.1,180.1,38.3,341,38.3,360.2c0,30.7-28.7,32.6-354.4,32.6h-354.4v266.3c0,237.5,3.8,270.1,38.3,314.2c55.6,70.9,145.6,90,427.2,90h243.3v373.6V2288l-358.2-3.8C5511.2,2282.3,5315.8,2278.4,5273.7,2274.6z"/></g></g>
</svg>