<?xml version="1.0" encoding="utf-8"?>
<!-- Svg Vector Icons : http://www.onlinewebfonts.com/icon -->
<!DOCTYPE svg PUBLIC "-//W3C//DTD SVG 1.1//EN" "http://www.w3.org/Graphics/SVG/1.1/DTD/svg11.dtd">
<svg version="1.1" xmlns="http://www.w3.org/2000/svg" xmlns:xlink="http://www.w3.org/1999/xlink" x="0px" y="0px" viewBox="0 0 1000 1000" enable-background="new 0 0 1000 1000" xml:space="preserve">
<metadata> Svg Vector Icons : http://www.onlinewebfonts.com/icon </metadata>
<g><path d="M500,10C229.4,10,10,229.4,10,500s219.4,490,490,490s490-219.4,490-490S770.6,10,500,10z M484.4,794.3c-40.7,20.1-84.5,22.3-101.4,22.3c-3.2,0-5.1-0.1-5.4-0.1c0,0-1.2,0-3.3,0c-26.4,0-158-6.2-158-128.2c0-119.9,143.3-129.3,187.2-129.3l1.1,0c-25.4-34.5-20.1-69.3-20.1-69.3c-2.3,0.1-5.5,0.3-9.5,0.3c-16.5,0-48.4-2.7-75.8-20.7c-33.5-22-50.5-59.4-50.5-111.2c0-146.3,156.9-152.2,158.5-152.3h156.7v3.5c0,17.9-31.5,21.3-53,24.3c-7.2,1-21.9,2.6-26,4.7c39.7,21.5,46.1,55.5,46.1,106c0,57.5-22.1,88-45.6,109.3c-14.5,13.2-26,23.7-26,37.5c0,13.6,15.7,27.6,33.9,43.9c29.8,26.6,70.5,63.1,70.5,124.3C563.9,722.9,537.1,768.2,484.4,794.3z M827,510.6H724.8v104.1h-64.7V510.6H557.8v-65.9h102.2V340.6h64.7v104.1H827V510.6z"/><path d="M401.8,590.3c-3.5,0-7,0.1-10.6,0.4c-30,2.3-57.6,13.7-77.6,32.2c-19.8,18.3-29.9,41.2-28.5,64.6c3,48.7,54.5,77.4,117,72.7c61.5-4.6,102.5-40.6,99.5-89.4C498.9,625,459.7,590.3,401.8,590.3z"/><path d="M460.8,324.8c-16.3-58.3-42.6-75.6-83.5-75.6c-4.4,0-8.9,0.6-13.1,1.9c-17.7,5.1-31.8,20.2-39.6,42.5c-8,22.7-8.5,46.3-1.6,73.3c12.4,48.1,46,83,79.9,83c4.4,0,8.9-0.6,13.1-1.8C452.9,437.4,476.2,379.9,460.8,324.8z"/></g>
</svg>