<?xml version="1.0" encoding="utf-8"?>
<!-- Svg Vector Icons : http://www.onlinewebfonts.com/icon -->
<!DOCTYPE svg PUBLIC "-//W3C//DTD SVG 1.1//EN" "http://www.w3.org/Graphics/SVG/1.1/DTD/svg11.dtd">
<svg version="1.1" xmlns="http://www.w3.org/2000/svg" xmlns:xlink="http://www.w3.org/1999/xlink" x="0px" y="0px" viewBox="0 0 1000 1000" enable-background="new 0 0 1000 1000" xml:space="preserve">
<metadata> Svg Vector Icons : http://www.onlinewebfonts.com/icon </metadata>
<g><path d="M500,10C229.4,10,10,229.4,10,500c0,270.6,219.4,490,490,490s490-219.4,490-490C990,229.4,770.6,10,500,10z M711.2,353.4v49v38.4v205.7h-0.1c0,0.5,0.1,0.9,0.1,1.4c0,36.6-27.8,66.1-62.6,67.8v0.3h-1.2H352.6h-1.2v-0.3c-34.8-1.6-62.6-31.2-62.6-67.8c0-0.5,0.1-1,0.1-1.4h-0.1V440.9v-38.4v-49h0.1c0-0.5-0.1-0.9-0.1-1.4c0-36.6,27.8-66.1,62.6-67.8v-0.3h1.2h294.8h1.2v0.3c34.8,1.6,62.6,31.2,62.6,67.8c0,0.5-0.1,0.9-0.1,1.4H711.2z"/><path d="M500,582.1c44,0,79.6-37,79.6-82.7S544,416.6,500,416.6c-44,0-79.6,37-79.6,82.7C420.4,545,456,582.1,500,582.1z"/><path d="M607.8,401.3h45.1c7.1,0,12.9-6,12.9-13.4v-46.8c0-7.4-5.8-13.4-12.9-13.4h-45.1c-7.1,0-12.9,6-12.9,13.4v46.8C594.9,395.3,600.7,401.3,607.8,401.3z"/><path d="M622.7,499.3c0,70.4-54.9,127.5-122.7,127.5c-67.8,0-122.7-57.1-122.7-127.5c0-8.9,0.9-17.6,2.6-26.1h-46.7v186.6c0,7.4,5.8,13.4,12.9,13.4h307.8c7.1,0,12.9-6,12.9-13.4V473.3h-46.7C621.8,481.7,622.7,490.4,622.7,499.3z"/></g>
</svg>