<?xml version="1.0" encoding="utf-8"?>
<!-- Svg Vector Icons : http://www.onlinewebfonts.com/icon -->
<!DOCTYPE svg PUBLIC "-//W3C//DTD SVG 1.1//EN" "http://www.w3.org/Graphics/SVG/1.1/DTD/svg11.dtd">
<svg version="1.1" xmlns="http://www.w3.org/2000/svg" xmlns:xlink="http://www.w3.org/1999/xlink" x="0px" y="0px" viewBox="0 0 1000 1000" enable-background="new 0 0 1000 1000" xml:space="preserve">
<metadata> Svg Vector Icons : http://www.onlinewebfonts.com/icon </metadata>
<g><path d="M960.8,605c19.5,37.6,29.2,77.8,29.2,120.5c0,75.2-26.6,139-79.7,191.5c-53.2,52.5-116.7,78.8-190.6,78.8c-46.7,0-89.4-10.4-128.3-31.1c-28.5,5.2-57,7.8-85.6,7.8c-129.6,0-240.1-45.7-331.5-137.1C82.9,744,37.2,634.2,37.2,505.8c0-32.4,3.2-64.2,9.7-95.3C22.3,369.1,10,323.7,10,274.5c0-75.2,26.6-139,79.7-191.5C142.9,30.4,206.4,4.2,280.3,4.2c53.1,0,101.8,13.6,145.8,40.8c25.9-5.2,52.5-7.8,79.7-7.8c128.3,0,238.2,45.7,329.6,137.1c91.4,91.4,137.1,201.9,137.1,331.5C972.5,539.6,968.6,572.6,960.8,605z M745,728.5c22-30.5,33.1-65.1,33.1-104c0-32.4-6.5-59.9-19.4-82.6c-13-22.6-30.5-41.1-52.5-55.4c-22-14.3-48.6-26.5-79.7-36.9c-31.1-9.1-65.5-18.2-103-27.2c-31.1-6.5-52.8-11.7-65.1-15.6c-12.3-3.9-25-8.4-37.9-13.6c-11.7-6.5-20.7-13.6-27.2-21.4c-6.5-7.8-9.7-16.8-9.7-27.2c0-18.2,9.7-33,29.2-44.7c20.7-14.3,47.3-21.4,79.7-21.4c36.3,0,62.9,6.5,79.7,19.4c15.6,11.7,29.2,28.5,40.8,50.6c10.4,18.2,20.1,30.5,29.2,36.9c9.1,9.1,22,13.6,38.9,13.6c19.4,0,35.7-6.8,48.6-20.4c13-13.6,19.4-28.8,19.4-45.7c0-16.8-4.9-34.3-14.6-52.5c-9.7-18.2-25-35.3-45.7-51.5c-20.7-16.2-46.7-28.8-77.8-37.9c-31.1-9-67.4-13.6-108.9-13.6c-51.8,0-97.2,7.1-136.1,21.4c-40.2,14.3-70.7,35-91.4,62.2c-20.7,27.2-31.1,59-31.1,95.3c0,36.3,9.7,67.4,29.2,93.3c19.4,24.6,46,44.1,79.7,58.3c33.7,14.3,74.5,26.6,122.5,36.9c36.3,7.8,65.5,14.9,87.5,21.4c19.5,6.5,35.7,15.5,48.6,27.2c11.7,11.7,17.5,26.6,17.5,44.7c0,23.3-11,42.8-33,58.3c-24.6,15.6-56.4,23.3-95.3,23.3c-28.5,0-51.2-3.9-68.1-11.7c-16.9-7.8-29.8-17.5-38.9-29.2c-9.1-13-18.2-29.2-27.2-48.6c-6.5-16.9-15.6-29.8-27.2-38.9c-10.4-10.4-24-15.6-40.8-15.6c-19.4,0-35.7,6.2-48.6,18.5c-13,12.3-19.4,26.9-19.4,43.7c0,27.2,9.7,55.7,29.2,85.6c20.7,28.5,46.7,51.2,77.8,68.1c44,23.3,99.8,35,167.2,35c55.7,0,104.3-8.4,145.8-25.3C691.2,783.2,722.9,758.9,745,728.5z"/></g>
</svg>