<?xml version="1.0" encoding="utf-8"?>
<!-- Svg Vector Icons : http://www.onlinewebfonts.com/icon -->
<!DOCTYPE svg PUBLIC "-//W3C//DTD SVG 1.1//EN" "http://www.w3.org/Graphics/SVG/1.1/DTD/svg11.dtd">
<svg version="1.1" xmlns="http://www.w3.org/2000/svg" xmlns:xlink="http://www.w3.org/1999/xlink" x="0px" y="0px" viewBox="0 0 1000 1000" enable-background="new 0 0 1000 1000" xml:space="preserve">
<metadata> Svg Vector Icons : http://www.onlinewebfonts.com/icon </metadata>
<g><g transform="translate(0.000000,446.000000) scale(0.100000,-0.100000)"><path d="M4326,4323.1c-1068.4-143.5-2132.5-688.8-2878.6-1476.8C774.1,2135.4,337,1272.3,162.6,303.2C103-25.8,81-694.6,118.5-1052.3c117-1121.4,609.3-2147.9,1415-2953.7c741.7-741.7,1642.4-1203.1,2693.2-1379.7c289.2-48.6,947-68.4,1260.5-35.3c2132.5,220.8,3876.4,1781.5,4313.5,3865.4c94.9,450.3,125.8,1099.3,75.1,1562.9c-178.8,1633.6-1183.3,3081.7-2657.9,3827.9c-505.5,256.1-1035.3,421.6-1574,490C5304,4369.4,4659.4,4367.2,4326,4323.1z M3672.6,2214.9c147.9-536.4,158.9-569.5,174.4-569.5c8.8,0,37.5,81.7,64,183.2c26.5,99.3,79.5,302.4,117,452.5l72.8,269.3h196.5c181,0,198.7-4.4,183.2-37.5c-6.6-22.1-108.2-315.7-222.9-655.6l-207.5-613.7V760.1V276.7h-198.7h-198.7v448.1v445.9L3432,1833c-121.4,364.2-220.8,673.3-220.8,688.7c0,22.1,50.8,28.7,185.4,28.7h183.2L3672.6,2214.9z M5134,1976.5c152.3-28.7,271.5-110.4,328.9-220.8c39.7-79.5,44.2-128,44.2-646.8c0-543.1-2.2-562.9-50.8-657.9c-39.7-72.8-81.7-112.6-172.2-158.9c-108.2-57.4-136.9-61.8-300.2-55.2c-156.7,6.6-189.8,15.4-273.7,72.8c-172.2,121.4-185.4,170-192.1,761.6c-8.8,565.1,4.4,651.2,101.5,757.2c90.5,94.9,165.6,128,381.9,167.8C5010.4,1998.5,5067.8,1987.5,5134,1976.5z M6125.2,1309.8c0-355.4,6.6-668.9,13.3-695.4c26.5-94.9,128-83.9,247.2,22.1c48.6,44.2,48.6,50.8,48.6,682.1v635.8h165.6h165.6v-838.9V276.7h-165.6h-165.6v77.3c0,88.3-19.9,97.1-79.5,30.9c-99.3-110.4-302.4-170-417.2-121.4C5796.3,323,5794,342.9,5794,1192.8v761.6h165.6h165.6V1309.8z M7129.6-275.2c333.3-48.6,660.1-275.9,812.4-569.5c121.4-231.8,130.3-313.5,121.4-1030.9c-6.6-607.1-8.8-646.8-57.4-766c-110.4-275.9-364.2-527.6-640.2-640.2l-125.8-50.8l-2108.2-6.6c-1457-4.4-2143.5,2.2-2223,17.7c-362,75-688.7,379.7-801.3,746.1c-39.7,128.1-44.2,205.3-44.2,763.8c0,682.1,8.8,750.6,132.5,980.2C2339.3-560,2677-321.6,2979.4-277.4C3169.3-250.9,6937.5-248.7,7129.6-275.2z"/><path d="M4904.4,1649.8c-33.1-35.3-37.5-106-37.5-536.4c0-560.7,8.8-593.8,143.5-593.8c154.5,0,172.2,72.9,161.1,675.5c-4.4,315.7-13.2,430.5-37.5,457C5092,1702.7,4950.8,1700.5,4904.4,1649.8z"/><path d="M2902.2-805v-154.5h176.6h176.6v-883v-885.2l172.2,6.6l170,6.6l6.6,878.6l4.4,876.4h176.6h176.6V-805v154.5H3432h-529.8V-805z"/><path d="M5198-1688v-1039.8l150.1,6.6c136.9,6.6,147.9,11,154.5,57.4l8.8,53l46.3-44.2c117-108.2,331.1-103.8,437.1,8.8c53,55.2,53,57.4,59.6,622.5c8.8,626.9-2.2,697.6-110.4,788.1c-61.8,53-86.1,59.6-183.2,50.8c-70.7-6.6-141.3-28.7-183.2-59.6l-70.6-48.6v320.1v322.3h-154.5H5198V-1688z M5727.8-1465c13.3-26.5,22.1-229.6,22.1-507.7c0-390.8-4.4-468-35.3-496.7c-44.2-44.2-94.9-44.2-158.9,0c-48.6,33.1-48.6,41.9-48.6,514.3c0,342.2,6.6,485.7,26.5,505.5C5577.7-1405.5,5701.3-1416.5,5727.8-1465z"/><path d="M6489.4-1200.1c-103.8-48.6-196.5-141.3-229.6-229.6c-15.4-37.5-24.3-253.9-24.3-534.2c0-501.1,8.8-556.3,106-657.8c94.9-101.5,176.6-132.5,337.8-130.3c273.7,0,412.8,125.8,434.9,393l11,141.3h-158.9h-156.7v-90.5c0-134.6-30.9-174.4-132.5-174.4c-114.8,0-132.5,37.5-132.5,284.8v200.9h287h287v271.5c0,242.8-6.6,284.8-50.8,368.7C6970.6-1173.7,6701.3-1100.8,6489.4-1200.1z M6774.2-1471.7c22.1-30.9,35.3-97.1,35.3-165.6v-117h-132.5h-132.5v125.8c0,83.9,11,136.8,37.5,165.6C6632.9-1407.7,6732.2-1412.1,6774.2-1471.7z"/><path d="M4094.2-1886.7c0-551.9,6.6-697.6,30.9-748.3c33.1-61.8,117-112.6,185.4-112.6c55.2,0,253.9,97.1,291.4,143.5c30.9,37.5,33.1,35.3,44.2-35.3l11-75l150.1-6.6l147.9-6.6v763.8v761.6h-154.5h-154.5v-582.8v-585l-59.6-46.4c-33.1-26.5-83.9-44.2-114.8-39.7l-57.4,6.6l-6.6,624.7l-4.4,622.5h-154.5h-154.5V-1886.7z"/></g></g>
</svg>